<svg width="17" height="16" viewBox="0 0 17 16" fill="none" xmlns="http://www.w3.org/2000/svg">
<path d="M14.875 4H12.75C12.75 2.93913 12.3022 1.92172 11.5052 1.17157C10.7082 0.421427 9.62717 0 8.5 0C7.37283 0 6.29183 0.421427 5.4948 1.17157C4.69777 1.92172 4.25 2.93913 4.25 4H2.125C1.56141 4 1.02091 4.21071 0.622398 4.58579C0.223883 4.96086 0 5.46957 0 6L0 12.6667C0.00112473 13.5504 0.374625 14.3976 1.03857 15.0225C1.70252 15.6474 2.6027 15.9989 3.54167 16H13.4583C14.3973 15.9989 15.2975 15.6474 15.9614 15.0225C16.6254 14.3976 16.9989 13.5504 17 12.6667V6C17 5.46957 16.7761 4.96086 16.3776 4.58579C15.9791 4.21071 15.4386 4 14.875 4ZM8.5 1.33333C9.25145 1.33333 9.97212 1.61428 10.5035 2.11438C11.0348 2.61448 11.3333 3.29276 11.3333 4H5.66667C5.66667 3.29276 5.96518 2.61448 6.49653 2.11438C7.02788 1.61428 7.74855 1.33333 8.5 1.33333ZM15.5833 12.6667C15.5833 13.1971 15.3595 13.7058 14.9609 14.0809C14.5624 14.456 14.0219 14.6667 13.4583 14.6667H3.54167C2.97808 14.6667 2.43758 14.456 2.03906 14.0809C1.64055 13.7058 1.41667 13.1971 1.41667 12.6667V6C1.41667 5.82319 1.49129 5.65362 1.62413 5.5286C1.75697 5.40357 1.93714 5.33333 2.125 5.33333H4.25V6.66667C4.25 6.84348 4.32463 7.01305 4.45747 7.13807C4.5903 7.2631 4.77047 7.33333 4.95833 7.33333C5.14619 7.33333 5.32636 7.2631 5.4592 7.13807C5.59204 7.01305 5.66667 6.84348 5.66667 6.66667V5.33333H11.3333V6.66667C11.3333 6.84348 11.408 7.01305 11.5408 7.13807C11.6736 7.2631 11.8538 7.33333 12.0417 7.33333C12.2295 7.33333 12.4097 7.2631 12.5425 7.13807C12.6754 7.01305 12.75 6.84348 12.75 6.66667V5.33333H14.875C15.0629 5.33333 15.243 5.40357 15.3759 5.5286C15.5087 5.65362 15.5833 5.82319 15.5833 6V12.6667Z" fill="#236A82"/>
</svg>
