<svg width="12" height="17" viewBox="0 0 12 17" fill="none" xmlns="http://www.w3.org/2000/svg">
<path d="M6 8.675C6.3595 8.675 6.7156 8.60479 7.04801 8.46825C7.38043 8.3317 7.68279 8.13144 7.93771 7.87864C8.19265 7.62583 8.39514 7.32543 8.53339 6.99446C8.67163 6.66348 8.74286 6.30855 8.74286 5.95C8.74286 5.22566 8.45265 4.53201 7.93771 4.02136C7.42295 3.51089 6.72584 3.225 6 3.225C5.27416 3.225 4.57705 3.51089 4.06229 4.02136C3.54735 4.53201 3.25714 5.22566 3.25714 5.95C3.25714 6.30855 3.32836 6.66347 3.46661 6.99446C3.60486 7.32543 3.80735 7.62583 4.06229 7.87864C4.57705 8.38911 5.27416 8.675 6 8.675ZM6 0.6C8.9825 0.6 11.4 2.99715 11.4 5.95C11.4 6.94321 11.0627 8.10148 10.5157 9.31216C9.97236 10.5149 9.24251 11.7254 8.50393 12.8109C7.76652 13.8948 7.0279 14.8432 6.47318 15.521C6.29385 15.7401 6.13401 15.9306 6 16.0879C5.86599 15.9306 5.70615 15.7401 5.52682 15.521C4.9721 14.8432 4.23348 13.8948 3.49607 12.8109C2.75749 11.7254 2.02764 10.5149 1.48429 9.31216C0.937347 8.10148 0.6 6.94321 0.6 5.95C0.6 4.53272 1.1677 3.17246 2.17984 2.16875C3.19216 1.16487 4.56622 0.6 6 0.6Z" stroke="#fff" stroke-width="1.2"/>
</svg>
