<svg width="4" height="20" viewBox="0 0 4 20" fill="none" xmlns="http://www.w3.org/2000/svg">
<path d="M1.99967 3.33333C2.92015 3.33333 3.66634 2.58714 3.66634 1.66667C3.66634 0.746192 2.92015 0 1.99967 0C1.0792 0 0.333008 0.746192 0.333008 1.66667C0.333008 2.58714 1.0792 3.33333 1.99967 3.33333Z" fill="#374957"/>
<path d="M1.99967 11.6667C2.92015 11.6667 3.66634 10.9205 3.66634 10C3.66634 9.07957 2.92015 8.33337 1.99967 8.33337C1.0792 8.33337 0.333008 9.07957 0.333008 10C0.333008 10.9205 1.0792 11.6667 1.99967 11.6667Z" fill="#374957"/>
<path d="M1.99967 20C2.92015 20 3.66634 19.2538 3.66634 18.3333C3.66634 17.4128 2.92015 16.6666 1.99967 16.6666C1.0792 16.6666 0.333008 17.4128 0.333008 18.3333C0.333008 19.2538 1.0792 20 1.99967 20Z" fill="#374957"/>
</svg>
