<svg width="720" height="77" viewBox="0 0 720 77" fill="none" xmlns="http://www.w3.org/2000/svg">
<rect x="0.5" y="-0.5" width="637" height="1" rx="0.5" transform="matrix(1 0 0 -1 48 30)" fill="white" fill-opacity="0.7" stroke="black"/>
<path d="M313.055 76H315.095L319.52 65.5H317.375L314.12 73.6L310.865 65.5H308.63L313.055 76ZM320.192 76H326.807V74.23H322.217V71.59H326.657V69.865H322.217V67.27H326.807V65.5H320.192V76ZM323.972 62.5L322.337 64.48H324.197L326.132 62.5H323.972ZM330.259 76V71.62H334.864V76H336.889V65.5H334.864V69.85H330.259V65.5H328.234V76H330.259ZM340.396 76V65.5H338.371V76H340.396ZM341.662 70.735C341.662 73.81 344.002 76.195 347.302 76.195C349.237 76.195 350.827 75.28 351.817 73.93L350.242 72.775C349.597 73.75 348.502 74.335 347.287 74.335C345.322 74.335 343.717 72.895 343.717 70.735C343.717 68.605 345.292 67.15 347.287 67.15C348.412 67.15 349.522 67.765 350.197 68.725L351.772 67.57C350.737 66.22 349.147 65.305 347.257 65.305C344.017 65.305 341.662 67.735 341.662 70.735ZM354.53 71.89V65.5H352.505V72.025C352.505 74.545 354.26 76.21 356.6 76.21C357.575 76.21 358.475 75.85 359.18 75.25V76H361.19V65.5H359.165V71.89C359.165 73.39 358.175 74.41 356.855 74.41C355.535 74.41 354.53 73.42 354.53 71.89ZM369.303 74.23H364.713V65.5H362.688V76H369.303V74.23ZM370.524 76H377.139V74.23H372.549V71.59H376.989V69.865H372.549V67.27H377.139V65.5H370.524V76ZM378.033 72.745C378.198 74.785 379.908 76.18 382.203 76.18C384.513 76.18 385.998 74.815 385.998 73.03C385.998 71.455 385.158 70.555 383.193 70.045L381.423 69.58C380.613 69.37 380.133 68.98 380.133 68.305C380.133 67.48 380.823 67 381.738 67C382.863 67 383.538 67.645 383.763 68.68H385.743C385.458 66.685 383.928 65.32 381.753 65.32C379.698 65.32 378.123 66.55 378.123 68.455C378.123 70.03 379.038 70.975 380.913 71.455L382.698 71.905C383.493 72.1 383.988 72.58 383.988 73.195C383.988 73.945 383.388 74.5 382.218 74.5C380.928 74.5 380.148 73.825 379.998 72.745H378.033Z" fill="black"/>
<path d="M5.35 76H7.39L11.815 65.5H9.67L6.415 73.6L3.16 65.5H0.925L5.35 76ZM11.442 70.75C11.442 73.78 13.887 76.195 17.037 76.195C20.172 76.195 22.617 73.78 22.617 70.75C22.617 67.72 20.172 65.305 17.037 65.305C13.887 65.305 11.442 67.72 11.442 70.75ZM13.512 70.75C13.512 68.725 15.072 67.165 17.037 67.165C19.002 67.165 20.547 68.725 20.547 70.75C20.547 72.79 19.002 74.335 17.037 74.335C15.072 74.335 13.512 72.79 13.512 70.75ZM27.934 76V71.65L32.059 65.5H29.659L26.959 69.715L24.259 65.5H21.799L25.909 71.62V76H27.934ZM36.1156 65.5H34.0756L29.6506 76H31.7506L32.7856 73.435H37.3456L38.3806 76H40.5406L36.1156 65.5ZM33.4756 71.68L35.0656 67.75L36.6406 71.68H33.4756ZM40.1676 70.735C40.1676 73.81 42.4026 76.195 45.5226 76.195C46.7076 76.195 47.8776 75.76 48.7326 74.815V76H50.6826V70.18H45.2376V71.92H48.7326C48.5526 73.15 47.5476 74.365 45.7026 74.365C43.7826 74.365 42.2226 72.91 42.2226 70.735C42.2226 68.53 43.7976 67.15 45.6276 67.15C46.8876 67.15 48.0276 67.765 48.7026 68.725L50.2776 67.57C49.2426 66.22 47.6526 65.305 45.6576 65.305C42.5226 65.305 40.1676 67.645 40.1676 70.735ZM52.1553 76H58.7703V74.23H54.1803V71.59H58.6203V69.865H54.1803V67.27H58.7703V65.5H52.1553V76Z" fill="black"/>
<path d="M612.775 76V65.5H610.75V76H612.775ZM616.141 76L616.126 68.275L621.436 76H623.656V65.5H621.781L621.796 73.225L616.486 65.5H614.266V76H616.141ZM627.174 76V71.605H631.614V69.88H627.174V67.27H631.764V65.5H625.149V76H627.174ZM632.761 70.75C632.761 73.78 635.206 76.195 638.356 76.195C641.491 76.195 643.936 73.78 643.936 70.75C643.936 67.72 641.491 65.305 638.356 65.305C635.206 65.305 632.761 67.72 632.761 70.75ZM634.831 70.75C634.831 68.725 636.391 67.165 638.356 67.165C640.321 67.165 641.866 68.725 641.866 70.75C641.866 72.79 640.321 74.335 638.356 74.335C636.391 74.335 634.831 72.79 634.831 70.75ZM647.243 76V71.71H648.713L651.098 76H653.378L650.768 71.455C651.893 70.99 652.688 69.91 652.688 68.635C652.688 66.88 651.278 65.5 649.493 65.5H645.218V76H647.243ZM649.163 67.27C650.063 67.27 650.648 67.855 650.648 68.635C650.648 69.415 650.063 70.015 649.163 70.015H647.243V67.27H649.163ZM656.073 76L656.058 68.245L659.133 76H660.993L664.053 68.245L664.038 76H666.003V65.5H663.213L660.093 73.48L656.958 65.5H654.138V76H656.073ZM673.123 65.5H671.083L666.658 76H668.758L669.793 73.435H674.353L675.388 76H677.548L673.123 65.5ZM670.483 71.68L672.073 67.75L673.648 71.68H670.483ZM675.822 67.27H679.047V76H681.072V67.27H684.312V65.5H675.822V67.27ZM687.394 76V65.5H685.369V76H687.394ZM688.66 70.75C688.66 73.78 691.105 76.195 694.255 76.195C697.39 76.195 699.835 73.78 699.835 70.75C699.835 67.72 697.39 65.305 694.255 65.305C691.105 65.305 688.66 67.72 688.66 70.75ZM690.73 70.75C690.73 68.725 692.29 67.165 694.255 67.165C696.22 67.165 697.765 68.725 697.765 70.75C697.765 72.79 696.22 74.335 694.255 74.335C692.29 74.335 690.73 72.79 690.73 70.75ZM702.991 76L702.976 68.275L708.286 76H710.506V65.5H708.631L708.646 73.225L703.336 65.5H701.116V76H702.991ZM711.745 72.745C711.91 74.785 713.62 76.18 715.915 76.18C718.225 76.18 719.71 74.815 719.71 73.03C719.71 71.455 718.87 70.555 716.905 70.045L715.135 69.58C714.325 69.37 713.845 68.98 713.845 68.305C713.845 67.48 714.535 67 715.45 67C716.575 67 717.25 67.645 717.475 68.68H719.455C719.17 66.685 717.64 65.32 715.465 65.32C713.41 65.32 711.835 66.55 711.835 68.455C711.835 70.03 712.75 70.975 714.625 71.455L716.41 71.905C717.205 72.1 717.7 72.58 717.7 73.195C717.7 73.945 717.1 74.5 715.93 74.5C714.64 74.5 713.86 73.825 713.71 72.745H711.745Z" fill="black"/>
<circle cx="350.5" cy="28.5" r="28" fill="#215261" stroke="black"/>
<circle cx="660.5" cy="28.5" r="28" fill="#215261" stroke="black"/>
<circle cx="30.5" cy="28.5" r="28" fill="#215261" stroke="black"/>
<path d="M355.02 25.04C355.02 22.56 353.04 20.78 350.24 20.78C348.2 20.78 346.52 21.62 345.24 23.18L346.94 24.76C347.88 23.6 348.8 23.04 349.96 23.04C351.36 23.04 352.38 23.98 352.38 25.28C352.38 26.22 352.04 26.82 350.94 27.96L345.64 33.42V35H355.12V32.74H349.58L352.72 29.56C354.42 27.82 355.02 26.6 355.02 25.04Z" fill="white"/>
<path d="M660.54 20.78C658.32 20.78 656.84 21.68 655.62 23.1L657.32 24.6C658.12 23.66 659.06 22.98 660.3 22.98C661.66 22.98 662.58 23.8 662.58 24.88C662.58 25.94 661.82 26.74 660.52 26.74H658.72V28.94H660.82C662.24 28.94 663.08 29.88 663.08 30.94C663.08 32.12 662.04 33.08 660.44 33.08C659.04 33.08 657.96 32.38 657.12 31.38L655.34 33C656.56 34.4 658.2 35.28 660.6 35.28C663.62 35.28 665.74 33.26 665.74 30.86C665.74 29.5 664.92 28.32 663.7 27.66C664.64 27.02 665.24 26 665.24 24.86C665.24 22.58 663.2 20.78 660.54 20.78Z" fill="white"/>
<path d="M34.38 32.7H31.2V21H25.92V23.3H28.6V32.7H25.44V35H34.38V32.7Z" fill="white"/>
</svg>
