<svg width="17" height="14" viewBox="0 0 17 14" fill="none" xmlns="http://www.w3.org/2000/svg">
<path d="M8.125 0C6.51803 0 4.94714 0.410543 3.61099 1.17971C2.27485 1.94888 1.23344 3.04213 0.618482 4.32122C0.00352045 5.6003 -0.157382 7.00776 0.156123 8.36563C0.469628 9.7235 1.24346 10.9708 2.37976 11.9497C3.51606 12.9287 4.9638 13.5954 6.53989 13.8655C8.11599 14.1356 9.74965 13.997 11.2343 13.4672C12.719 12.9373 13.9879 12.0401 14.8807 10.889C15.7735 9.73785 16.25 8.38447 16.25 7C16.2477 5.1441 15.3909 3.36479 13.8677 2.05247C12.3444 0.74015 10.2792 0.0020073 8.125 0V0ZM8.125 12.8333C6.78586 12.8333 5.47679 12.4912 4.36333 11.8502C3.24987 11.2093 2.38204 10.2982 1.86957 9.23232C1.3571 8.16642 1.22302 6.99353 1.48427 5.86197C1.74552 4.73042 2.39038 3.69102 3.3373 2.87521C4.28422 2.0594 5.49067 1.50383 6.80408 1.27875C8.11749 1.05367 9.47888 1.16919 10.7161 1.6107C11.9533 2.05221 13.0108 2.79989 13.7547 3.75917C14.4987 4.71846 14.8958 5.84627 14.8958 7C14.8939 8.54657 14.1799 10.0293 12.9105 11.1229C11.6412 12.2165 9.92013 12.8316 8.125 12.8333ZM9.47917 7C9.48024 7.20501 9.41859 7.40665 9.30043 7.5846C9.18226 7.76256 9.01175 7.91054 8.80607 8.01365C8.6004 8.11676 8.36681 8.17135 8.12885 8.17193C7.89088 8.17251 7.65694 8.11906 7.45059 8.01695C7.24424 7.91485 7.07276 7.7677 6.95343 7.59032C6.8341 7.41295 6.77112 7.21162 6.77085 7.0066C6.77058 6.80158 6.83302 6.60013 6.95188 6.42252C7.07075 6.24491 7.24184 6.09743 7.44792 5.99492V4.08333C7.44792 3.92862 7.51925 3.78025 7.64623 3.67085C7.77321 3.56146 7.94543 3.5 8.125 3.5C8.30458 3.5 8.47679 3.56146 8.60377 3.67085C8.73075 3.78025 8.80208 3.92862 8.80208 4.08333V5.99492C9.00732 6.09659 9.17792 6.24298 9.29676 6.41939C9.4156 6.5958 9.47851 6.79603 9.47917 7Z" fill="white"/>
</svg>
