<svg width="148" height="190" viewBox="0 0 148 190" fill="none" xmlns="http://www.w3.org/2000/svg">
<path d="M16.9589 123.069C-7.80763 86.5443 -4.37225 47.2513 22.8681 21.024C62.4372 -17.0701 126.49 -1.15764 144.07 50.7043C151.102 71.4452 147.907 91.2769 139.098 110.64C137.245 114.711 135.007 118.603 132.659 123.129C127.044 119.478 121.795 116.065 116.616 112.697C118.38 107.682 119.634 103.911 121.424 99.9477C129.465 82.1399 129.925 64.7598 120.351 47.2359C110.294 28.8219 86.4409 18.1196 65.559 21.3923C42.7406 24.968 22.8356 45.5612 20.6791 70.1561C19.9221 78.7962 21.8606 87.3846 25.3074 95.4837C27.5537 100.763 29.7465 106.065 32.0196 111.492C25.6649 117.374 23.7341 119.313 16.9589 123.069Z" fill="url(#paint0_linear_0_1)"/>
<path d="M16.9589 123.069C-7.80763 86.5443 -4.37225 47.2513 22.8681 21.024C62.4372 -17.0701 126.49 -1.15764 144.07 50.7043C151.102 71.4452 147.907 91.2769 139.098 110.64C137.245 114.711 135.007 118.603 132.659 123.129C127.044 119.478 121.795 116.065 116.616 112.697C118.38 107.682 119.634 103.911 121.424 99.9477C129.465 82.1399 129.925 64.7598 120.351 47.2359C110.294 28.8219 86.4409 18.1196 65.559 21.3923C42.7406 24.968 22.8356 45.5612 20.6791 70.1561C19.9221 78.7962 21.8606 87.3846 25.3074 95.4837C27.5537 100.763 29.7465 106.065 32.0196 111.492C25.6649 117.374 23.7341 119.313 16.9589 123.069Z" fill="white"/>
<path d="M107.073 74.6794C107.033 93.1855 92.3927 107.701 73.8966 107.575C55.6089 107.448 41.0471 92.5525 41.1618 74.0886C41.2765 55.5001 55.7809 41.2354 74.4739 41.3236C93.1191 41.4119 107.115 55.7322 107.073 74.6794Z" fill="url(#paint1_linear_0_1)"/>
<path d="M107.073 74.6794C107.033 93.1855 92.3927 107.701 73.8966 107.575C55.6089 107.448 41.0471 92.5525 41.1618 74.0886C41.2765 55.5001 55.7809 41.2354 74.4739 41.3236C93.1191 41.4119 107.115 55.7322 107.073 74.6794Z" fill="white"/>
<path d="M39.5956 155.408C35.7033 150.628 32.5949 146.975 29.6737 143.179C26.9418 139.626 24.8848 136.561 22.3154 132.993C30.0025 127.706 35.5848 123.115 39.2936 124.117C43.1458 125.406 43.7346 128.765 44.5719 128.268C68.2565 114.237 92.9389 120.393 102.639 126.693C102.639 126.693 104.811 124.824 107.489 124.258C112.911 123.113 120.957 128.776 126.102 132.897C120.843 140.982 115.763 147.593 108.751 154.802C102.211 149.884 93.6501 145.588 96.5043 138.287C83.8066 130.271 66.1153 130.556 51.9895 139.289C57.2697 146.617 45.7151 151.316 39.5956 155.408Z" fill="url(#paint2_linear_0_1)"/>
<path d="M39.5956 155.408C35.7033 150.628 32.5949 146.975 29.6737 143.179C26.9418 139.626 24.8848 136.561 22.3154 132.993C30.0025 127.706 35.5848 123.115 39.2936 124.117C43.1458 125.406 43.7346 128.765 44.5719 128.268C68.2565 114.237 92.9389 120.393 102.639 126.693C102.639 126.693 104.811 124.824 107.489 124.258C112.911 123.113 120.957 128.776 126.102 132.897C120.843 140.982 115.763 147.593 108.751 154.802C102.211 149.884 93.6501 145.588 96.5043 138.287C83.8066 130.271 66.1153 130.556 51.9895 139.289C57.2697 146.617 45.7151 151.316 39.5956 155.408Z" fill="white"/>
<path d="M101.219 163.753C93.2696 171.645 86.4638 177.554 74.024 189.578C64.429 181.039 55.6809 172.286 47.208 163.337C58.386 149.613 91.0997 149.882 101.219 163.753Z" fill="url(#paint3_linear_0_1)"/>
<path d="M101.219 163.753C93.2696 171.645 86.4638 177.554 74.024 189.578C64.429 181.039 55.6809 172.286 47.208 163.337C58.386 149.613 91.0997 149.882 101.219 163.753Z" fill="white"/>
<defs>
<linearGradient id="paint0_linear_0_1" x1="5.50971" y1="157.425" x2="111.718" y2="32.3365" gradientUnits="userSpaceOnUse">
<stop offset="0.2937" stop-color="#236A82"/>
<stop offset="1" stop-color="#215261"/>
</linearGradient>
<linearGradient id="paint1_linear_0_1" x1="43.5073" y1="126.029" x2="101.406" y2="69.4575" gradientUnits="userSpaceOnUse">
<stop offset="0.2937" stop-color="#236A82"/>
<stop offset="1" stop-color="#215261"/>
</linearGradient>
<linearGradient id="paint2_linear_0_1" x1="26.0097" y1="165.337" x2="45.4279" y2="109.809" gradientUnits="userSpaceOnUse">
<stop offset="0.2937" stop-color="#236A82"/>
<stop offset="1" stop-color="#215261"/>
</linearGradient>
<linearGradient id="paint3_linear_0_1" x1="49.1305" y1="199.711" x2="78.7998" y2="156.454" gradientUnits="userSpaceOnUse">
<stop offset="0.2937" stop-color="#236A82"/>
<stop offset="1" stop-color="#215261"/>
</linearGradient>
</defs>
</svg>
