<svg width="30" height="38" viewBox="0 0 30 38" fill="none" xmlns="http://www.w3.org/2000/svg">
<path d="M3.54961 24.6688C-1.41473 17.3475 -0.72612 9.47139 4.73408 4.21423C12.6655 -3.42156 25.5046 -0.23197 29.0285 10.1635C30.4379 14.321 29.7976 18.2961 28.0318 22.1775C27.6605 22.9934 27.2118 23.7736 26.7412 24.6807C25.6157 23.9489 24.5635 23.2649 23.5254 22.5897C23.8791 21.5845 24.1305 20.8286 24.4891 20.0341C26.1009 16.4646 26.1932 12.9809 24.2742 9.46831C22.2582 5.77731 17.477 3.63207 13.2913 4.28806C8.71744 5.0048 4.72757 9.13262 4.29532 14.0626C4.14357 15.7944 4.53214 17.5159 5.22304 19.1394C5.6733 20.1976 6.11283 21.2604 6.56846 22.3482C5.2947 23.5271 4.90767 23.9159 3.54961 24.6688Z" fill="white"/>
<path d="M21.6131 14.9693C21.6051 18.6788 18.6705 21.5884 14.963 21.563C11.2973 21.5377 8.37851 18.5519 8.4015 14.8509C8.42449 11.1249 11.3318 8.2656 15.0788 8.28328C18.8161 8.30097 21.6215 11.1714 21.6131 14.9693Z" fill="white"/>
<path d="M8.08679 31.1509C7.3066 30.1927 6.68351 29.4606 6.09798 28.6996C5.55039 27.9875 5.13807 27.373 4.62305 26.6578C6.16389 25.5981 7.28284 24.6779 8.02625 24.8786C8.79839 25.137 8.91642 25.8103 9.08426 25.7107C13.8317 22.8984 18.7792 24.1323 20.7236 25.395C20.7236 25.395 21.1589 25.0205 21.6958 24.9071C22.7825 24.6775 24.3954 25.8126 25.4266 26.6386C24.3724 28.2593 23.3542 29.5844 21.9487 31.0294C20.6377 30.0435 18.9218 29.1826 19.4939 27.7191C16.9487 26.1122 13.4025 26.1695 10.5711 27.9198C11.6295 29.3887 9.31341 30.3308 8.08679 31.1509Z" fill="white"/>
<path d="M20.4395 32.8237C18.8461 34.4056 17.4819 35.5899 14.9884 38.0001C13.0652 36.2886 11.3116 34.534 9.61328 32.7402C11.8539 29.9894 18.4112 30.0432 20.4395 32.8237Z" fill="white"/>
</svg>
