<svg width="124" height="88" viewBox="0 0 124 88" fill="none" xmlns="http://www.w3.org/2000/svg">
<g clip-path="url(#clip0_59_33)">
<path d="M9.45173 82.0735H7.57714L6.67856 79.8394H2.72109L1.82252 82.0735H0L3.84064 72.9288H5.61109L9.45173 82.0735ZM6.06638 78.3114L4.69916 74.8889L3.31925 78.3114H6.06638Z" fill="#232323"/>
<path d="M9.99735 72.9288H16.6626V74.1045L12.0542 80.5314H16.6759V82.0728H9.78906V80.9233L14.4108 74.4703H9.99735V72.9288Z" fill="#232323"/>
<path d="M21.4793 80.6889C22.6249 80.6889 23.4841 79.8006 23.4841 78.4943V72.9296H25.2418V82.0742H23.4974V81.4211C22.8853 81.9436 22.1042 82.2571 21.2583 82.2571C19.2275 82.2571 17.7041 80.8068 17.7041 78.6122V72.9296H19.4619V78.4943C19.4612 79.8267 20.3337 80.6889 21.4793 80.6889Z" fill="#232323"/>
<path d="M26.543 82.0735V72.9288H30.2534C31.8029 72.9288 33.0266 74.1306 33.0266 75.6593C33.0266 76.77 32.3363 77.7105 31.3603 78.1151L33.6254 82.0735H31.6467L29.5765 78.3375H28.3007V82.0735H26.543ZM28.3007 74.4709V76.8618H29.967C30.7481 76.8618 31.2561 76.3392 31.2561 75.66C31.2561 74.9807 30.7481 74.4709 29.967 74.4709H28.3007Z" fill="#232323"/>
<path d="M34.3018 72.9288H40.043V74.4703H36.0595V76.7305H39.9128V78.233H36.0595V80.5321H40.043V82.0735H34.3018V72.9288Z" fill="#232323"/>
<path d="M50.0279 82.0735H48.1533L47.2547 79.8394H43.2973L42.3987 82.0735H40.5762L44.4168 72.9288H46.1873L50.0279 82.0735ZM46.6432 78.3114L45.276 74.8889L43.8961 78.3114H46.6432Z" fill="#232323"/>
<path d="M57.2263 82.0735H51.6934V72.9288H53.0606V80.871H57.2263V82.0735Z" fill="#232323"/>
<path d="M58.333 82.0735V72.9288H59.7002V82.0735H58.333Z" fill="#232323"/>
<path d="M61.0664 82.0735V72.9288H63.0064L65.9745 80.3358L68.956 72.9288H70.8699V82.0735H69.5421L69.5555 74.6799L66.574 82.0735H65.337L62.3555 74.6927L62.3816 82.0735H61.0664Z" fill="#232323"/>
<path d="M76.8186 72.7721C79.5003 72.7721 81.6092 74.8756 81.6092 77.5008C81.6092 80.1395 79.5003 82.2296 76.8186 82.2296C74.1236 82.2296 72.0146 80.1395 72.0146 77.5008C72.0153 74.8756 74.1242 72.7721 76.8186 72.7721ZM76.8186 80.9762C78.7192 80.9762 80.2293 79.4609 80.2293 77.5015C80.2293 75.5548 78.7192 74.0268 76.8186 74.0268C74.918 74.0268 73.3946 75.5555 73.3946 77.5015C73.3952 79.4609 74.918 80.9762 76.8186 80.9762Z" fill="#232323"/>
<path d="M86.3348 81.0024C87.5979 81.0024 88.5739 80.0224 88.5739 78.5727V72.9296H89.9411V82.0742H88.5873V81.2248C87.9751 81.8652 87.1293 82.231 86.1786 82.231C84.2259 82.231 82.7285 80.8068 82.7285 78.6518V72.9302H84.0957V78.5734C84.0957 80.0485 85.0591 81.0024 86.3348 81.0024Z" fill="#232323"/>
<path d="M92.4268 79.2781C92.5963 80.3888 93.3774 81.0419 94.5878 81.0419C95.7073 81.0419 96.3455 80.4933 96.3455 79.6834C96.3455 79.0041 95.8769 78.56 94.9783 78.3114L93.4682 77.8934C91.9448 77.4754 91.1771 76.6655 91.1771 75.4115C91.1771 73.8305 92.4528 72.7855 94.1585 72.7855C95.9683 72.7855 97.2568 73.9484 97.4784 75.6727H96.1506C95.955 74.5882 95.2654 73.9484 94.1458 73.9484C93.2212 73.9484 92.5316 74.471 92.5316 75.307C92.5316 75.9735 93.0002 76.4043 93.8467 76.6394L95.3829 77.0574C96.9844 77.5015 97.7001 78.2726 97.7001 79.5527C97.7001 81.0814 96.4764 82.2048 94.5884 82.2048C92.6618 82.2048 91.2558 81.0292 91.0996 79.2787H92.4268V79.2781Z" fill="#232323"/>
<path d="M98.8701 82.0735V72.9288H100.237V82.0735H98.8701Z" fill="#232323"/>
<path d="M101.631 82.0735V72.9288H103.141L108.205 80.1656L108.193 72.9288H109.468V82.0735H107.958L102.894 74.8233L102.907 82.0735H101.631Z" fill="#232323"/>
<path d="M110.847 72.9288H116.38V74.1306H112.214V76.8872H116.249V78.0763H112.214V80.8717H116.38V82.0735H110.847V72.9288Z" fill="#232323"/>
<path d="M118.501 79.2781C118.671 80.3888 119.452 81.0419 120.662 81.0419C121.782 81.0419 122.42 80.4933 122.42 79.6834C122.42 79.0041 121.951 78.56 121.053 78.3114L119.542 77.8934C118.019 77.4754 117.251 76.6655 117.251 75.4115C117.251 73.8305 118.527 72.7855 120.233 72.7855C122.043 72.7855 123.331 73.9484 123.553 75.6727H122.225C122.029 74.5882 121.34 73.9484 120.22 73.9484C119.295 73.9484 118.606 74.471 118.606 75.307C118.606 75.9735 119.074 76.4043 119.921 76.6394L121.457 77.0574C123.059 77.5015 123.774 78.2726 123.774 79.5527C123.774 81.0814 122.551 82.2048 120.663 82.2048C118.736 82.2048 117.33 81.0292 117.174 79.2787H118.501V79.2781Z" fill="#232323"/>
<path d="M79.2451 84.7805H80.4708C81.0162 84.7805 81.4308 85.1965 81.4308 85.7298C81.4308 86.2543 81.0162 86.675 80.4708 86.675H79.7184V87.9457H79.2451V84.7805ZM79.7178 85.1965V86.2683H80.4341C80.7452 86.2683 80.9521 86.0332 80.9521 85.7351C80.9521 85.4323 80.7452 85.1972 80.4341 85.1972H79.7178V85.1965Z" fill="url(#paint0_linear_59_33)"/>
<path d="M84.2323 86.0467C83.9353 86.0467 83.719 86.2772 83.719 86.6342V87.9452H83.2637V85.6394H83.7143V85.9241C83.8271 85.7386 84.0114 85.6213 84.2637 85.6213H84.4213V86.046H84.2323V86.0467Z" fill="url(#paint1_linear_59_33)"/>
<path d="M86.165 85.0432C86.165 84.8938 86.2865 84.7719 86.4401 84.7719C86.589 84.7719 86.7058 84.8938 86.7058 85.0432C86.7058 85.1966 86.5883 85.3192 86.4401 85.3192C86.2865 85.3192 86.165 85.1966 86.165 85.0432ZM86.6651 87.9458H86.2098V85.64H86.6651V87.9458Z" fill="url(#paint2_linear_59_33)"/>
<path d="M88.3506 85.64H88.8419L89.5269 87.3308L90.2118 85.64H90.6892L89.7158 87.9458H89.3326L88.3506 85.64Z" fill="url(#paint3_linear_59_33)"/>
<path d="M92.9015 86.6348L93.6178 86.5805V86.4311C93.6178 86.1692 93.4469 86.0104 93.1445 86.0104C92.9235 86.0104 92.7212 86.0781 92.527 86.2322L92.324 85.9019C92.563 85.6983 92.8648 85.5991 93.2072 85.5991C93.7253 85.5991 94.0631 85.9019 94.0631 86.3722V87.4118C94.0631 87.4976 94.1078 87.5431 94.1979 87.5431H94.3148V87.9457H94.0898C93.8688 87.9457 93.7066 87.8372 93.6485 87.6563C93.4956 87.8687 93.2386 87.9953 92.9322 87.9953C92.4816 87.9953 92.1484 87.7106 92.1484 87.308C92.1491 86.9061 92.4242 86.6663 92.9015 86.6348ZM93.023 87.6383C93.3521 87.6383 93.6178 87.4078 93.6178 87.1184V86.9288L92.9689 86.9831C92.7166 87.0012 92.5857 87.1144 92.5857 87.304C92.5864 87.5023 92.7666 87.6383 93.023 87.6383Z" fill="url(#paint4_linear_59_33)"/>
<path d="M96.2576 87.4481V86.042H95.8203V85.6394H96.2576V84.9614H96.7129V85.6394H97.2403V86.042H96.7129V87.3489C96.7129 87.4755 96.7983 87.5432 96.9379 87.5432H97.2396V87.9458H96.8023C96.4519 87.9458 96.2576 87.7374 96.2576 87.4481Z" fill="url(#paint5_linear_59_33)"/>
<path d="M100.065 85.5945C100.727 85.5945 101.214 86.1056 101.214 86.7929V86.9423H99.3441C99.4068 87.3174 99.7179 87.5981 100.106 87.5981C100.371 87.5981 100.597 87.4896 100.768 87.2592L101.097 87.503C100.868 87.8105 100.525 87.996 100.106 87.996C99.4162 87.996 98.8848 87.4809 98.8848 86.7936C98.8848 86.1418 99.3941 85.5945 100.065 85.5945ZM99.3534 86.5806H100.755C100.678 86.2282 100.394 85.9931 100.056 85.9931C99.7186 85.9924 99.4342 86.2275 99.3534 86.5806Z" fill="url(#paint6_linear_59_33)"/>
<path d="M107.388 87.9458V87.6564C107.181 87.8688 106.892 88.0001 106.572 88.0001C105.891 88.0001 105.359 87.4621 105.359 86.7976C105.359 86.1284 105.895 85.5905 106.572 85.5905C106.887 85.5905 107.175 85.7171 107.383 85.9294V84.7812H107.838V87.9458H107.388ZM106.603 85.9971C106.166 85.9971 105.815 86.3495 105.815 86.7976C105.815 87.2404 106.166 87.5981 106.603 87.5981C107.04 87.5981 107.392 87.2411 107.392 86.7976C107.392 86.3495 107.04 85.9971 106.603 85.9971Z" fill="url(#paint7_linear_59_33)"/>
<path d="M110.734 86.0467C110.437 86.0467 110.221 86.2772 110.221 86.6342V87.9452H109.766V85.6394H110.216V85.9241C110.329 85.7386 110.513 85.6213 110.766 85.6213H110.923V86.046H110.734V86.0467Z" fill="url(#paint8_linear_59_33)"/>
<path d="M112.668 85.0432C112.668 84.8938 112.789 84.7719 112.943 84.7719C113.092 84.7719 113.209 84.8938 113.209 85.0432C113.209 85.1966 113.091 85.3192 112.943 85.3192C112.789 85.3192 112.668 85.1966 112.668 85.0432ZM113.168 87.9458H112.713V85.64H113.168V87.9458Z" fill="url(#paint9_linear_59_33)"/>
<path d="M114.853 85.64H115.344L116.029 87.3308L116.714 85.64H117.191L116.218 87.9458H115.835L114.853 85.64Z" fill="url(#paint10_linear_59_33)"/>
<path d="M119.85 85.5945C120.512 85.5945 120.999 86.1056 120.999 86.7929V86.9423H119.129C119.192 87.3174 119.503 87.5981 119.891 87.5981C120.157 87.5981 120.382 87.4896 120.553 87.2592L120.882 87.503C120.653 87.8105 120.31 87.996 119.891 87.996C119.201 87.996 118.67 87.4809 118.67 86.7936C118.669 86.1418 119.179 85.5945 119.85 85.5945ZM119.138 86.5806H120.539C120.462 86.2282 120.179 85.9931 119.841 85.9931C119.503 85.9924 119.219 86.2275 119.138 86.5806Z" fill="url(#paint11_linear_59_33)"/>
<path d="M123.81 86.0467C123.513 86.0467 123.297 86.2772 123.297 86.6342V87.9452H122.842V85.6394H123.292V85.9241C123.405 85.7386 123.59 85.6213 123.842 85.6213H123.999V86.046H123.81V86.0467Z" fill="url(#paint12_linear_59_33)"/>
<path d="M39.8589 42.9768C31.2103 30.2221 32.4099 16.5008 41.9224 7.34205C55.7401 -5.96061 78.1077 -0.403881 84.2468 17.7066C86.7022 24.9494 85.5866 31.8747 82.5104 38.6366C81.8635 40.0581 81.0818 41.4173 80.262 42.9976C78.3013 41.7228 76.4681 40.531 74.6596 39.3547C75.2757 37.6036 75.7137 36.2866 76.3386 34.9026C79.1464 28.6841 79.3073 22.6149 75.964 16.4954C72.4519 10.0651 64.1224 6.32784 56.8303 7.47067C48.862 8.71934 41.911 15.9106 41.158 24.4993C40.8936 27.5164 41.5706 30.5155 42.7742 33.3438C43.5586 35.1873 44.3244 37.0389 45.1181 38.934C42.8991 40.9879 42.2248 41.6652 39.8589 42.9768Z" fill="url(#paint13_linear_59_33)"/>
<path d="M71.3273 26.0788C71.3133 32.5412 66.2009 37.6103 59.7419 37.5661C53.3558 37.5219 48.2707 32.3202 48.3108 25.8725C48.3508 19.3813 53.4158 14.4 59.9435 14.4308C66.4546 14.4616 71.342 19.4623 71.3273 26.0788Z" fill="#232323"/>
<path d="M47.7638 54.2698C46.4046 52.6004 45.3191 51.325 44.299 49.9993C43.3451 48.7586 42.6267 47.6881 41.7295 46.4421C44.4139 44.5959 46.3632 42.9929 47.6584 43.3426C49.0036 43.7927 49.2092 44.9657 49.5016 44.7922C57.7723 39.8926 66.3916 42.0423 69.779 44.2422C69.779 44.2422 70.5373 43.5897 71.4726 43.3921C73.3659 42.9922 76.1758 44.9697 77.9723 46.4087C76.1357 49.2322 74.362 51.5407 71.9132 54.0581C69.6294 52.3405 66.6399 50.8406 67.6367 48.291C63.2025 45.4916 57.0246 45.5914 52.0918 48.6407C53.9357 51.1997 49.9008 52.8409 47.7638 54.2698Z" fill="#232323"/>
<path d="M69.2827 57.1838C66.5068 59.9397 64.1302 62.003 59.7862 66.2018C56.4355 63.2201 53.3806 60.1635 50.4219 57.0384C54.3253 52.2461 65.7491 52.3399 69.2827 57.1838Z" fill="url(#paint14_linear_59_33)"/>
<path d="M75.2401 86.6837H0.203125V87.2866H75.2401V86.6837Z" fill="url(#paint15_linear_59_33)"/>
</g>
<defs>
<linearGradient id="paint0_linear_59_33" x1="80.4614" y1="114.574" x2="80.335" y2="86.492" gradientUnits="userSpaceOnUse">
<stop offset="0.2937" stop-color="#236A82"/>
<stop offset="1" stop-color="#215261"/>
</linearGradient>
<linearGradient id="paint1_linear_59_33" x1="83.9667" y1="114.558" x2="83.8403" y2="86.4764" gradientUnits="userSpaceOnUse">
<stop offset="0.2937" stop-color="#236A82"/>
<stop offset="1" stop-color="#215261"/>
</linearGradient>
<linearGradient id="paint2_linear_59_33" x1="86.5674" y1="114.547" x2="86.441" y2="86.4646" gradientUnits="userSpaceOnUse">
<stop offset="0.2937" stop-color="#236A82"/>
<stop offset="1" stop-color="#215261"/>
</linearGradient>
<linearGradient id="paint3_linear_59_33" x1="89.6486" y1="114.533" x2="89.5222" y2="86.4507" gradientUnits="userSpaceOnUse">
<stop offset="0.2937" stop-color="#236A82"/>
<stop offset="1" stop-color="#215261"/>
</linearGradient>
<linearGradient id="paint4_linear_59_33" x1="93.3538" y1="114.516" x2="93.2275" y2="86.434" gradientUnits="userSpaceOnUse">
<stop offset="0.2937" stop-color="#236A82"/>
<stop offset="1" stop-color="#215261"/>
</linearGradient>
<linearGradient id="paint5_linear_59_33" x1="96.6584" y1="114.501" x2="96.5321" y2="86.4192" gradientUnits="userSpaceOnUse">
<stop offset="0.2937" stop-color="#236A82"/>
<stop offset="1" stop-color="#215261"/>
</linearGradient>
<linearGradient id="paint6_linear_59_33" x1="100.173" y1="114.485" x2="100.047" y2="86.4034" gradientUnits="userSpaceOnUse">
<stop offset="0.2937" stop-color="#236A82"/>
<stop offset="1" stop-color="#215261"/>
</linearGradient>
<linearGradient id="paint7_linear_59_33" x1="106.727" y1="114.456" x2="106.601" y2="86.3739" gradientUnits="userSpaceOnUse">
<stop offset="0.2937" stop-color="#236A82"/>
<stop offset="1" stop-color="#215261"/>
</linearGradient>
<linearGradient id="paint8_linear_59_33" x1="110.468" y1="114.439" x2="110.342" y2="86.3571" gradientUnits="userSpaceOnUse">
<stop offset="0.2937" stop-color="#236A82"/>
<stop offset="1" stop-color="#215261"/>
</linearGradient>
<linearGradient id="paint9_linear_59_33" x1="113.069" y1="114.427" x2="112.943" y2="86.3454" gradientUnits="userSpaceOnUse">
<stop offset="0.2937" stop-color="#236A82"/>
<stop offset="1" stop-color="#215261"/>
</linearGradient>
<linearGradient id="paint10_linear_59_33" x1="116.15" y1="114.413" x2="116.024" y2="86.3315" gradientUnits="userSpaceOnUse">
<stop offset="0.2937" stop-color="#236A82"/>
<stop offset="1" stop-color="#215261"/>
</linearGradient>
<linearGradient id="paint11_linear_59_33" x1="119.958" y1="114.396" x2="119.831" y2="86.3144" gradientUnits="userSpaceOnUse">
<stop offset="0.2937" stop-color="#236A82"/>
<stop offset="1" stop-color="#215261"/>
</linearGradient>
<linearGradient id="paint12_linear_59_33" x1="123.544" y1="114.38" x2="123.418" y2="86.2983" gradientUnits="userSpaceOnUse">
<stop offset="0.2937" stop-color="#236A82"/>
<stop offset="1" stop-color="#215261"/>
</linearGradient>
<linearGradient id="paint13_linear_59_33" x1="35.8607" y1="54.9739" x2="72.9494" y2="11.2924" gradientUnits="userSpaceOnUse">
<stop offset="0.2937" stop-color="#236A82"/>
<stop offset="1" stop-color="#215261"/>
</linearGradient>
<linearGradient id="paint14_linear_59_33" x1="50.8919" y1="67.7365" x2="87.9803" y2="24.0549" gradientUnits="userSpaceOnUse">
<stop offset="0.2937" stop-color="#236A82"/>
<stop offset="1" stop-color="#215261"/>
</linearGradient>
<linearGradient id="paint15_linear_59_33" x1="37.7234" y1="87.4554" x2="37.7192" y2="86.5149" gradientUnits="userSpaceOnUse">
<stop offset="0.2937" stop-color="#236A82"/>
<stop offset="1" stop-color="#215261"/>
</linearGradient>
<clipPath id="clip0_59_33">
<rect width="124" height="88" fill="white"/>
</clipPath>
</defs>
</svg>
