<svg width="105" height="89" viewBox="0 0 105 89" fill="none" xmlns="http://www.w3.org/2000/svg">
<circle cx="60.5" cy="44.5" r="44.5" fill="#236A82"/>
<path d="M75.514 36.4534C75.3522 35.4124 74.882 34.4459 74.1656 33.6819C73.4493 32.9179 72.5207 32.3926 71.5029 32.1756L59.1107 29.4164C57.7817 29.1228 56.4061 29.1217 55.0767 29.4132C53.7473 29.7047 52.4952 30.282 51.4051 31.1061L14.7773 58.1417L4.51733 57.7139C3.69255 57.684 2.87944 57.9181 2.19348 58.3831C1.50752 58.848 0.983592 59.5201 0.696113 60.3039C0.408635 61.0877 0.372221 61.9434 0.592044 62.7493C0.811867 63.5553 1.27675 64.2706 1.92066 64.7936L12.4762 73.1995C13.7429 74.7609 14.5873 74.4614 35.5507 62.89L37.514 83.0384C37.5467 83.588 37.7326 84.1169 38.0503 84.5637C38.3679 85.0105 38.8042 85.3568 39.3084 85.5622C39.6712 85.7075 40.0584 85.7801 40.4484 85.7761C41.2336 85.7518 41.9835 85.4403 42.5595 84.8992L47.6051 80.2364C48.1075 79.7648 48.4478 79.1427 48.5762 78.4611L53.1995 53.0084C60.7362 48.7306 67.8718 44.7095 72.9595 41.7792C73.8698 41.2604 74.6021 40.4726 75.0585 39.5209C75.515 38.5692 75.6739 37.499 75.514 36.4534V36.4534ZM70.8695 38.0575C65.5918 41.0947 58.2029 45.3511 50.2651 49.7572L49.3995 50.2492L44.4807 77.3489L41.3773 80.215L39.0551 56.0456L36.2473 57.5C21.1107 66.0556 16.0651 68.5367 14.334 69.3067L5.25622 62.0131L15.9807 62.4836L53.9807 34.5497C54.5779 34.0973 55.2628 33.7777 55.9904 33.6119C56.7179 33.446 57.4719 33.4376 58.2029 33.5872L70.5529 36.2822C70.7432 36.3172 70.9175 36.4128 71.0504 36.5552C71.1833 36.6975 71.2679 36.8792 71.2918 37.0736C71.3352 37.2618 71.3176 37.4592 71.2415 37.6365C71.1655 37.8137 71.035 37.9614 70.8695 38.0575V38.0575Z" fill="white"/>
<path d="M14.7775 45.8217L22.293 47.9605L25.7553 45.4153L17.3108 42.9342L21.1108 40.5814L32.6586 40.2392L37.5141 36.6672L21.1108 37.1806C20.5937 37.1522 20.0797 37.2787 19.633 37.5442L14.0808 40.8167C13.6218 41.0922 13.2535 41.4992 13.0225 41.9864C12.7914 42.4736 12.7078 43.0192 12.7823 43.5545C12.8568 44.0897 13.0861 44.5906 13.4411 44.9941C13.7962 45.3976 14.2612 45.6855 14.7775 45.8217V45.8217Z" fill="white"/>
</svg>
